<mxfile host="app.diagrams.net" modified="2022-01-15T05:04:57.294Z" agent="5.0 (Windows NT 10.0; Win64; x64) AppleWebKit/537.36 (KHTML, like Gecko) Chrome/97.0.4692.71 Safari/537.36" etag="_o6s-fJO2IYk6YfhR9Zc" version="16.2.4" type="github">
  <diagram id="ZxHcsco9b7L7-rvQ7Xql" name="Page-1">
    <mxGraphModel dx="2115" dy="1146" grid="1" gridSize="10" guides="1" tooltips="1" connect="1" arrows="1" fold="1" page="1" pageScale="1" pageWidth="827" pageHeight="1169" math="0" shadow="0">
      <root>
        <mxCell id="84KTpsVSsy3dv5a97gq0-0" />
        <mxCell id="84KTpsVSsy3dv5a97gq0-1" parent="84KTpsVSsy3dv5a97gq0-0" />
        <mxCell id="yk9Jx_kOyNLx3biRVXQs-3" value="" style="rounded=0;whiteSpace=wrap;html=1;dashed=1;fillColor=#eeeeee;strokeColor=#36393d;" vertex="1" parent="84KTpsVSsy3dv5a97gq0-1">
          <mxGeometry x="1480" y="20" width="480" height="410" as="geometry" />
        </mxCell>
        <mxCell id="Yfrm37MvhDvbOV5HHXXn-4" value="" style="edgeStyle=orthogonalEdgeStyle;rounded=0;html=1;jettySize=auto;orthogonalLoop=1;plain-blue;endArrow=none;endFill=0;strokeWidth=4;strokeColor=#000000;sketch=1;" parent="84KTpsVSsy3dv5a97gq0-1" source="Yfrm37MvhDvbOV5HHXXn-6" target="Yfrm37MvhDvbOV5HHXXn-8" edge="1">
          <mxGeometry x="1126.75" y="302" as="geometry" />
        </mxCell>
        <mxCell id="Yfrm37MvhDvbOV5HHXXn-5" style="edgeStyle=orthogonalEdgeStyle;curved=1;rounded=0;html=1;exitX=1;exitY=0.5;exitPerimeter=0;entryX=0;entryY=0.5;entryPerimeter=0;endArrow=none;endFill=0;jettySize=auto;orthogonalLoop=1;strokeWidth=4;fontSize=15;sketch=1;" parent="84KTpsVSsy3dv5a97gq0-1" source="Yfrm37MvhDvbOV5HHXXn-6" target="Yfrm37MvhDvbOV5HHXXn-12" edge="1">
          <mxGeometry relative="1" as="geometry" />
        </mxCell>
        <mxCell id="Yfrm37MvhDvbOV5HHXXn-6" value="" style="verticalLabelPosition=bottom;verticalAlign=top;html=1;strokeWidth=4;shape=mxgraph.flowchart.on-page_reference;plain-blue;gradientColor=none;fillColor=#B5E3Fe;strokeColor=#000000;" parent="84KTpsVSsy3dv5a97gq0-1" vertex="1">
          <mxGeometry x="1096.75" y="287" width="30" height="30" as="geometry" />
        </mxCell>
        <mxCell id="Yfrm37MvhDvbOV5HHXXn-7" value="" style="edgeStyle=orthogonalEdgeStyle;curved=1;rounded=0;orthogonalLoop=1;jettySize=auto;html=1;endArrow=none;endFill=0;strokeWidth=4;fontFamily=Courier New;fontSize=16;" parent="84KTpsVSsy3dv5a97gq0-1" source="Yfrm37MvhDvbOV5HHXXn-8" edge="1">
          <mxGeometry relative="1" as="geometry">
            <mxPoint x="1416" y="302" as="targetPoint" />
          </mxGeometry>
        </mxCell>
        <mxCell id="Yfrm37MvhDvbOV5HHXXn-8" value="" style="verticalLabelPosition=bottom;verticalAlign=top;html=1;strokeWidth=4;shape=mxgraph.flowchart.on-page_reference;plain-blue;gradientColor=none;strokeColor=#000000;" parent="84KTpsVSsy3dv5a97gq0-1" vertex="1">
          <mxGeometry x="1335" y="287" width="30" height="30" as="geometry" />
        </mxCell>
        <mxCell id="Yfrm37MvhDvbOV5HHXXn-9" value="" style="edgeStyle=orthogonalEdgeStyle;curved=1;rounded=0;orthogonalLoop=1;jettySize=auto;html=1;endArrow=openThin;endFill=0;strokeWidth=4;fontFamily=Courier New;fontSize=16;startArrow=none;startFill=0;sketch=1;" parent="84KTpsVSsy3dv5a97gq0-1" edge="1">
          <mxGeometry relative="1" as="geometry">
            <mxPoint x="1365" y="301.5" as="sourcePoint" />
            <mxPoint x="1870" y="302" as="targetPoint" />
            <Array as="points">
              <mxPoint x="1502.25" y="302" />
              <mxPoint x="1502.25" y="302" />
            </Array>
          </mxGeometry>
        </mxCell>
        <mxCell id="Yfrm37MvhDvbOV5HHXXn-10" value="" style="edgeStyle=orthogonalEdgeStyle;rounded=0;html=1;jettySize=auto;orthogonalLoop=1;strokeWidth=4;endArrow=none;endFill=0;sketch=1;" parent="84KTpsVSsy3dv5a97gq0-1" target="Yfrm37MvhDvbOV5HHXXn-6" edge="1">
          <mxGeometry x="1026.75" y="302" as="geometry">
            <mxPoint x="982.2500000000001" y="302" as="sourcePoint" />
          </mxGeometry>
        </mxCell>
        <mxCell id="Yfrm37MvhDvbOV5HHXXn-11" style="edgeStyle=orthogonalEdgeStyle;curved=1;rounded=0;html=1;exitX=1;exitY=0.5;exitPerimeter=0;entryX=0;entryY=0.5;entryPerimeter=0;endArrow=none;endFill=0;jettySize=auto;orthogonalLoop=1;strokeWidth=4;fontSize=15;sketch=1;" parent="84KTpsVSsy3dv5a97gq0-1" source="Yfrm37MvhDvbOV5HHXXn-12" edge="1">
          <mxGeometry relative="1" as="geometry">
            <mxPoint x="1241.75" y="382" as="targetPoint" />
          </mxGeometry>
        </mxCell>
        <mxCell id="Yfrm37MvhDvbOV5HHXXn-12" value="" style="verticalLabelPosition=bottom;verticalAlign=top;html=1;strokeWidth=4;shape=mxgraph.flowchart.on-page_reference;plain-purple;gradientColor=none;strokeColor=#000000;fillColor=#D5E8D4;" parent="84KTpsVSsy3dv5a97gq0-1" vertex="1">
          <mxGeometry x="1169.75" y="367" width="30" height="30" as="geometry" />
        </mxCell>
        <mxCell id="Yfrm37MvhDvbOV5HHXXn-13" style="edgeStyle=orthogonalEdgeStyle;curved=1;rounded=0;html=1;entryX=0;entryY=0.5;entryPerimeter=0;endArrow=none;endFill=0;jettySize=auto;orthogonalLoop=1;strokeWidth=4;fontSize=15;sketch=1;" parent="84KTpsVSsy3dv5a97gq0-1" target="Yfrm37MvhDvbOV5HHXXn-8" edge="1">
          <mxGeometry relative="1" as="geometry">
            <mxPoint x="1274.25" y="382" as="sourcePoint" />
          </mxGeometry>
        </mxCell>
        <mxCell id="Yfrm37MvhDvbOV5HHXXn-14" value="&lt;b&gt;M&lt;/b&gt;" style="whiteSpace=wrap;html=1;verticalAlign=top;fillColor=#D5E8D4;strokeColor=#000000;strokeWidth=4;gradientColor=none;" parent="84KTpsVSsy3dv5a97gq0-1" vertex="1">
          <mxGeometry x="1243.75" y="367" width="30" height="30" as="geometry" />
        </mxCell>
        <mxCell id="Yfrm37MvhDvbOV5HHXXn-15" value="&lt;div&gt;&lt;b&gt;&lt;font style=&quot;font-size: 13px&quot;&gt;M&lt;/font&gt;&lt;/b&gt;&lt;/div&gt;" style="whiteSpace=wrap;html=1;verticalAlign=top;fillColor=#DAE8FC;strokeColor=#000000;strokeWidth=4;gradientColor=none;align=center;" parent="84KTpsVSsy3dv5a97gq0-1" vertex="1">
          <mxGeometry x="1416" y="287" width="30" height="30" as="geometry" />
        </mxCell>
        <mxCell id="Yfrm37MvhDvbOV5HHXXn-16" value="" style="edgeStyle=orthogonalEdgeStyle;curved=1;rounded=0;orthogonalLoop=1;jettySize=auto;html=1;endArrow=none;endFill=0;strokeWidth=4;fontFamily=Courier New;fontSize=16;exitX=0.5;exitY=0;exitDx=0;exitDy=0;sketch=1;entryX=0.5;entryY=1;entryDx=0;entryDy=0;entryPerimeter=0;" parent="84KTpsVSsy3dv5a97gq0-1" source="Yfrm37MvhDvbOV5HHXXn-15" target="Yfrm37MvhDvbOV5HHXXn-17" edge="1">
          <mxGeometry relative="1" as="geometry">
            <mxPoint x="1456" y="255" as="sourcePoint" />
            <mxPoint x="1494.25" y="175" as="targetPoint" />
          </mxGeometry>
        </mxCell>
        <mxCell id="yk9Jx_kOyNLx3biRVXQs-2" style="rounded=0;orthogonalLoop=1;jettySize=auto;html=1;exitX=0.855;exitY=0.145;exitDx=0;exitDy=0;exitPerimeter=0;entryX=0.175;entryY=0.84;entryDx=0;entryDy=0;entryPerimeter=0;endArrow=none;endFill=0;dashed=1;" edge="1" parent="84KTpsVSsy3dv5a97gq0-1" source="Yfrm37MvhDvbOV5HHXXn-17" target="yk9Jx_kOyNLx3biRVXQs-1">
          <mxGeometry relative="1" as="geometry" />
        </mxCell>
        <mxCell id="Yfrm37MvhDvbOV5HHXXn-17" value="" style="verticalLabelPosition=bottom;verticalAlign=top;html=1;strokeWidth=4;shape=mxgraph.flowchart.on-page_reference;strokeColor=#2D7600;fillColor=#60a917;fontColor=#ffffff;" parent="84KTpsVSsy3dv5a97gq0-1" vertex="1">
          <mxGeometry x="1503.75" y="95" width="30" height="30" as="geometry" />
        </mxCell>
        <mxCell id="Yfrm37MvhDvbOV5HHXXn-18" value="&lt;font style=&quot;font-size: 17px&quot;&gt;master&lt;/font&gt;" style="text;html=1;strokeColor=none;fillColor=none;align=center;verticalAlign=middle;whiteSpace=wrap;overflow=hidden;fontSize=14;fontStyle=1;fontFamily=Courier New;" parent="84KTpsVSsy3dv5a97gq0-1" vertex="1">
          <mxGeometry x="860" y="287" width="70" height="20" as="geometry" />
        </mxCell>
        <mxCell id="Yfrm37MvhDvbOV5HHXXn-19" value="&lt;font style=&quot;font-size: 17px&quot;&gt;development&lt;/font&gt;" style="text;html=1;strokeColor=none;fillColor=none;align=center;verticalAlign=middle;whiteSpace=wrap;overflow=hidden;fontSize=14;fontStyle=1;fontFamily=Courier New;" parent="84KTpsVSsy3dv5a97gq0-1" vertex="1">
          <mxGeometry x="860" y="370" width="121.62" height="20" as="geometry" />
        </mxCell>
        <mxCell id="Yfrm37MvhDvbOV5HHXXn-20" value="&lt;font style=&quot;font-size: 17px&quot;&gt;release&lt;/font&gt;" style="text;html=1;strokeColor=none;fillColor=none;align=center;verticalAlign=middle;whiteSpace=wrap;overflow=hidden;fontSize=14;fontStyle=1;fontFamily=Courier New;" parent="84KTpsVSsy3dv5a97gq0-1" vertex="1">
          <mxGeometry x="860" y="98" width="81.62" height="20" as="geometry" />
        </mxCell>
        <mxCell id="Yfrm37MvhDvbOV5HHXXn-21" value="&lt;font style=&quot;font-size: 15px&quot;&gt;New development start&lt;/font&gt;" style="shape=callout;whiteSpace=wrap;html=1;perimeter=calloutPerimeter;fontSize=16;position2=0.1;rotation=0;base=13;size=40;position=0.26;snapToPoint=0;rounded=0;shadow=0;sketch=1;direction=west;" parent="84KTpsVSsy3dv5a97gq0-1" vertex="1">
          <mxGeometry x="1000.87" y="347" width="163" height="60" as="geometry" />
        </mxCell>
        <mxCell id="Yfrm37MvhDvbOV5HHXXn-22" value="&lt;font style=&quot;font-size: 14px&quot;&gt;UAT Start&lt;/font&gt;" style="shape=callout;whiteSpace=wrap;html=1;perimeter=calloutPerimeter;fontSize=16;position2=1;rotation=0;base=11;size=30;position=0.61;snapToPoint=0;rounded=0;shadow=0;sketch=1;direction=west;arcSize=15;" parent="84KTpsVSsy3dv5a97gq0-1" vertex="1">
          <mxGeometry x="1305" y="347" width="90" height="50" as="geometry" />
        </mxCell>
        <mxCell id="Yfrm37MvhDvbOV5HHXXn-23" value="&lt;font style=&quot;font-size: 14px&quot;&gt;UAT Complete&lt;/font&gt;" style="shape=callout;whiteSpace=wrap;html=1;perimeter=calloutPerimeter;fontSize=16;position2=0.94;rotation=0;base=11;size=50;position=0.56;snapToPoint=0;rounded=0;shadow=0;sketch=1;direction=east;arcSize=15;" parent="84KTpsVSsy3dv5a97gq0-1" vertex="1">
          <mxGeometry x="1328.5" y="162.5" width="109" height="75" as="geometry" />
        </mxCell>
        <mxCell id="Yfrm37MvhDvbOV5HHXXn-24" style="rounded=0;sketch=1;orthogonalLoop=1;jettySize=auto;html=1;entryX=0.5;entryY=1;entryDx=0;entryDy=0;entryPerimeter=0;fontSize=15;endArrow=none;endFill=0;dashed=1;" parent="84KTpsVSsy3dv5a97gq0-1" source="Yfrm37MvhDvbOV5HHXXn-25" target="Yfrm37MvhDvbOV5HHXXn-12" edge="1">
          <mxGeometry relative="1" as="geometry" />
        </mxCell>
        <mxCell id="Yfrm37MvhDvbOV5HHXXn-25" value="&lt;span style=&quot;font-size: 16px&quot;&gt;feature/Dev20220117_LoanPayments&lt;/span&gt;" style="text;html=1;strokeColor=#82b366;fillColor=#d5e8d4;align=center;verticalAlign=middle;whiteSpace=wrap;overflow=hidden;rounded=0;shadow=0;sketch=1;fontSize=15;" parent="84KTpsVSsy3dv5a97gq0-1" vertex="1">
          <mxGeometry x="1038.5" y="430" width="290" height="20" as="geometry" />
        </mxCell>
        <mxCell id="Yfrm37MvhDvbOV5HHXXn-27" value="&lt;span style=&quot;text-align: center ; background-color: rgb(248 , 249 , 250)&quot;&gt;UAT20220117_LoanPayments&lt;/span&gt;" style="shape=image;html=1;verticalAlign=middle;verticalLabelPosition=middle;labelBackgroundColor=#ffffff;imageAspect=0;aspect=fixed;image=https://cdn1.iconfinder.com/data/icons/32-soft-media-icons--Vol-2/33/tag.png;rounded=0;shadow=0;sketch=1;fontSize=13;fillColor=none;gradientColor=none;direction=east;rotation=0;textDirection=ltr;labelPosition=right;align=left;" parent="84KTpsVSsy3dv5a97gq0-1" vertex="1">
          <mxGeometry x="1208" y="257" width="20" height="20" as="geometry" />
        </mxCell>
        <mxCell id="Yfrm37MvhDvbOV5HHXXn-28" value="&lt;span style=&quot;text-align: center ; background-color: rgb(248 , 249 , 250)&quot;&gt;Rel20220117_LoanPayments&lt;/span&gt;" style="shape=image;html=1;verticalAlign=middle;verticalLabelPosition=middle;labelBackgroundColor=#ffffff;imageAspect=0;aspect=fixed;image=https://cdn1.iconfinder.com/data/icons/32-soft-media-icons--Vol-2/33/tag.png;rounded=0;shadow=0;sketch=1;fontSize=13;fillColor=none;gradientColor=none;direction=east;rotation=0;textDirection=ltr;labelPosition=right;align=left;" parent="84KTpsVSsy3dv5a97gq0-1" vertex="1">
          <mxGeometry x="1436" y="257" width="20" height="20" as="geometry" />
        </mxCell>
        <mxCell id="Yfrm37MvhDvbOV5HHXXn-29" value="&lt;span style=&quot;font-size: 16px&quot;&gt;release/Rel20220117_LoanPayments&lt;/span&gt;" style="text;html=1;strokeColor=#82b366;fillColor=#97D077;align=center;verticalAlign=middle;whiteSpace=wrap;overflow=hidden;rounded=0;shadow=0;sketch=1;fontSize=15;" parent="84KTpsVSsy3dv5a97gq0-1" vertex="1">
          <mxGeometry x="1243.75" y="55" width="290" height="20" as="geometry" />
        </mxCell>
        <mxCell id="Yfrm37MvhDvbOV5HHXXn-30" style="rounded=0;sketch=1;orthogonalLoop=1;jettySize=auto;html=1;fontSize=15;endArrow=none;endFill=0;dashed=1;exitX=0.145;exitY=0.145;exitDx=0;exitDy=0;exitPerimeter=0;" parent="84KTpsVSsy3dv5a97gq0-1" source="Yfrm37MvhDvbOV5HHXXn-17" target="Yfrm37MvhDvbOV5HHXXn-29" edge="1">
          <mxGeometry relative="1" as="geometry">
            <mxPoint x="1499" y="140" as="sourcePoint" />
            <mxPoint x="1519.25" y="95" as="targetPoint" />
          </mxGeometry>
        </mxCell>
        <mxCell id="ULyehuTYYwsjFRRzDHKz-42" value="" style="verticalLabelPosition=bottom;verticalAlign=top;html=1;strokeWidth=4;shape=mxgraph.flowchart.on-page_reference;plain-blue;gradientColor=#EA6B66;strokeColor=#B85450;fillColor=#F8CECC;" parent="84KTpsVSsy3dv5a97gq0-1" vertex="1">
          <mxGeometry x="1635.6200000000001" y="185" width="30" height="30" as="geometry" />
        </mxCell>
        <mxCell id="ULyehuTYYwsjFRRzDHKz-43" style="rounded=0;orthogonalLoop=1;jettySize=auto;html=1;exitX=0.855;exitY=0.855;exitDx=0;exitDy=0;exitPerimeter=0;entryX=0;entryY=0.5;entryDx=0;entryDy=0;entryPerimeter=0;endArrow=classicThin;endFill=1;strokeWidth=4;fontFamily=Courier New;fontColor=#009900;edgeStyle=orthogonalEdgeStyle;curved=1;" parent="84KTpsVSsy3dv5a97gq0-1" source="Yfrm37MvhDvbOV5HHXXn-17" target="ULyehuTYYwsjFRRzDHKz-42" edge="1">
          <mxGeometry relative="1" as="geometry">
            <mxPoint x="1581.6200000000001" y="135.6500000000001" as="sourcePoint" />
            <mxPoint x="1649.9699999999996" y="219" as="targetPoint" />
            <Array as="points">
              <mxPoint x="1529.62" y="200" />
            </Array>
          </mxGeometry>
        </mxCell>
        <mxCell id="ULyehuTYYwsjFRRzDHKz-44" style="edgeStyle=orthogonalEdgeStyle;curved=1;rounded=0;orthogonalLoop=1;jettySize=auto;html=1;entryX=0.5;entryY=0;entryDx=0;entryDy=0;entryPerimeter=0;endArrow=none;endFill=0;strokeWidth=4;fontFamily=Courier New;fontColor=#009900;startArrow=classic;startFill=1;exitX=1;exitY=0.5;exitDx=0;exitDy=0;exitPerimeter=0;" parent="84KTpsVSsy3dv5a97gq0-1" source="Yfrm37MvhDvbOV5HHXXn-17" target="ULyehuTYYwsjFRRzDHKz-42" edge="1">
          <mxGeometry relative="1" as="geometry">
            <mxPoint x="1585.97" y="125" as="sourcePoint" />
            <mxPoint x="1794.2199999999996" y="159" as="targetPoint" />
          </mxGeometry>
        </mxCell>
        <mxCell id="ULyehuTYYwsjFRRzDHKz-45" style="edgeStyle=orthogonalEdgeStyle;curved=1;rounded=0;orthogonalLoop=1;jettySize=auto;html=1;exitX=1;exitY=0.5;exitDx=0;exitDy=0;exitPerimeter=0;endArrow=classicThin;endFill=1;strokeWidth=4;fontFamily=Courier New;fontColor=#009900;fillColor=#f8cecc;strokeColor=#b85450;" parent="84KTpsVSsy3dv5a97gq0-1" source="ULyehuTYYwsjFRRzDHKz-42" edge="1">
          <mxGeometry relative="1" as="geometry">
            <mxPoint x="1641.6200000000001" y="155" as="sourcePoint" />
            <mxPoint x="1751.62" y="305" as="targetPoint" />
          </mxGeometry>
        </mxCell>
        <mxCell id="ULyehuTYYwsjFRRzDHKz-46" value="&lt;span style=&quot;font-size: 16px&quot;&gt;hotfix/Rel20220117_LoanPayments&lt;/span&gt;" style="text;html=1;strokeColor=#b85450;fillColor=#f8cecc;align=center;verticalAlign=middle;whiteSpace=wrap;overflow=hidden;rounded=0;shadow=0;sketch=1;fontSize=15;" parent="84KTpsVSsy3dv5a97gq0-1" vertex="1">
          <mxGeometry x="1665.62" y="105" width="290" height="20" as="geometry" />
        </mxCell>
        <mxCell id="ULyehuTYYwsjFRRzDHKz-47" style="rounded=0;sketch=1;orthogonalLoop=1;jettySize=auto;html=1;fontSize=15;endArrow=none;endFill=0;dashed=1;exitX=0.855;exitY=0.145;exitDx=0;exitDy=0;exitPerimeter=0;entryX=0.5;entryY=1;entryDx=0;entryDy=0;" parent="84KTpsVSsy3dv5a97gq0-1" source="ULyehuTYYwsjFRRzDHKz-42" target="ULyehuTYYwsjFRRzDHKz-46" edge="1">
          <mxGeometry relative="1" as="geometry">
            <mxPoint x="1828.29" y="115" as="sourcePoint" />
            <mxPoint x="1741.6233333333334" y="95" as="targetPoint" />
          </mxGeometry>
        </mxCell>
        <mxCell id="ULyehuTYYwsjFRRzDHKz-48" value="&lt;span style=&quot;font-size: 14px&quot;&gt;Hotfix&lt;/span&gt;" style="shape=callout;whiteSpace=wrap;html=1;perimeter=calloutPerimeter;fontSize=16;position2=0.45;rotation=0;base=10;size=30;position=0.5;snapToPoint=0;rounded=0;shadow=0;sketch=1;direction=west;arcSize=15;" parent="84KTpsVSsy3dv5a97gq0-1" vertex="1">
          <mxGeometry x="1512.09" y="175" width="60" height="50" as="geometry" />
        </mxCell>
        <mxCell id="ULyehuTYYwsjFRRzDHKz-49" value="&lt;font style=&quot;font-size: 14px&quot;&gt;Hotfix Complete&lt;/font&gt;" style="shape=callout;whiteSpace=wrap;html=1;perimeter=calloutPerimeter;fontSize=16;position2=0.36;rotation=0;base=11;size=50;position=0.56;snapToPoint=0;rounded=0;shadow=0;sketch=1;direction=east;arcSize=15;" parent="84KTpsVSsy3dv5a97gq0-1" vertex="1">
          <mxGeometry x="1596.12" y="60" width="109" height="75" as="geometry" />
        </mxCell>
        <mxCell id="ULyehuTYYwsjFRRzDHKz-52" value="&lt;font style=&quot;font-size: 17px&quot;&gt;hotfix&lt;/font&gt;" style="text;html=1;strokeColor=none;fillColor=none;align=center;verticalAlign=middle;whiteSpace=wrap;overflow=hidden;fontSize=14;fontStyle=1;fontFamily=Courier New;" parent="84KTpsVSsy3dv5a97gq0-1" vertex="1">
          <mxGeometry x="860" y="191" width="81.62" height="20" as="geometry" />
        </mxCell>
        <mxCell id="yk9Jx_kOyNLx3biRVXQs-0" value="&lt;font style=&quot;font-size: 14px&quot;&gt;Hotfix Signoff&lt;/font&gt;" style="shape=callout;whiteSpace=wrap;html=1;perimeter=calloutPerimeter;fontSize=16;position2=0;rotation=0;base=11;size=50;position=0.56;snapToPoint=0;rounded=0;shadow=0;sketch=1;direction=east;arcSize=15;" vertex="1" parent="84KTpsVSsy3dv5a97gq0-1">
          <mxGeometry x="1740" y="163.5" width="109" height="75" as="geometry" />
        </mxCell>
        <mxCell id="yk9Jx_kOyNLx3biRVXQs-1" value="&lt;font color=&quot;#000000&quot;&gt;Prod Deployment&lt;/font&gt;" style="sketch=0;pointerEvents=1;shadow=0;dashed=0;html=1;strokeColor=#FFFFFF;labelPosition=right;verticalLabelPosition=middle;verticalAlign=middle;align=left;fillColor=#008a00;shape=mxgraph.mscae.intune.client_software;fontColor=#ffffff;" vertex="1" parent="84KTpsVSsy3dv5a97gq0-1">
          <mxGeometry x="1550" y="30" width="30" height="30" as="geometry" />
        </mxCell>
      </root>
    </mxGraphModel>
  </diagram>
</mxfile>
